# xmcd
#
# Track frame offsets:
#	222
#	11960
#	20172
#	45570
#	61360
#	74525
#	82135
#	91285
#	102610
#	110497
#	121132
#	140885
#
# Disc length: 2096 seconds
#
# Revision: 1
# Processed by: cddbd v1.5.1PL2 Copyright (c) Steve Scherf et al.
# Submitted via: audiograbber 1.82.01
#
DISCID=b4082e0c
DTITLE=Hamilton IV, Georg - A Country Christmas
DYEAR=1990
DGENRE=
TTITLE0=I Wonder As I Wander
TTITLE1=C.h.r.i.s.t.m.a.s.
TTITLE2=Christmas In The Trenches
TTITLE3=See Amid The Winter's Snow
TTITLE4=Friendly Beast
TTITLE5=Joy To The World
TTITLE6=The Little Grave
TTITLE7=Silent Night
TTITLE8=Away In A Manger
TTITLE9=Natividad
TTITLE10=Morning Star
TTITLE11=In The Bleak Midwinter
EXTD=
EXTT0=
EXTT1=
EXTT2=
EXTT3=
EXTT4=
EXTT5=
EXTT6=
EXTT7=
EXTT8=
EXTT9=
EXTT10=
EXTT11=
PLAYORDER=
